<svg width="641" height="642" viewBox="0 0 641 642" fill="none" xmlns="http://www.w3.org/2000/svg">
<g clip-path="url(#clip0_36_482)">
<circle cx="320" cy="321" r="315" fill="#6414E9"/>
<path d="M321.028 321.073L430.133 40.8323C455.97 50.8916 498.842 73.4681 532.07 105.696C565.299 137.924 588.09 181.565 596.197 199.653L321.028 321.073Z" fill="#723CFF" stroke="white" stroke-width="2"/>
<path d="M322.023 319.719L213.711 600.267C187.845 590.281 144.91 567.826 111.59 535.692C78.2708 503.558 55.3568 459.982 47.1982 441.917L322.023 319.719Z" fill="#723CFF" stroke="white" stroke-width="2"/>
<g filter="url(#filter0_d_36_482)">
<path d="M320.982 321.173L200.348 45.6985C225.746 34.5762 272.045 20.2889 318.33 19.6447C364.616 19.0006 411.57 33.8081 430.083 40.8908L320.982 321.173Z" fill="#FFB436"/>
<path d="M320.982 321.173L200.348 45.6985C225.746 34.5762 272.045 20.2889 318.33 19.6447C364.616 19.0006 411.57 33.8081 430.083 40.8908L320.982 321.173Z" stroke="white" stroke-width="2"/>
</g>
<path d="M321.457 319.944L443.871 594.631C418.545 605.918 372.341 620.505 326.06 621.448C279.78 622.392 232.731 607.889 214.172 600.926L321.457 319.944Z" fill="#63BCFF" stroke="white" stroke-width="2"/>
<path d="M321.064 321.212L595.315 199.612C606.554 224.959 621.065 271.186 621.962 317.45C622.858 363.715 608.338 410.704 601.371 429.236L321.064 321.212Z" fill="#63BCFF" stroke="white" stroke-width="2"/>
<path d="M322.461 319.44L47.6329 441.538C36.3756 416.2 21.842 369.978 20.9514 323.696C20.0609 277.415 34.6181 230.383 41.6022 211.832L322.461 319.44Z" fill="#63BCFF" stroke="white" stroke-width="2"/>
<path d="M322.378 321.055L603.081 428.964C593.149 454.799 570.786 497.689 538.727 530.985C506.667 564.281 463.148 587.197 445.103 595.359L322.378 321.055Z" fill="#723CFF" stroke="white" stroke-width="2"/>
<path d="M320.832 320.975L40.9927 210.845C51.1465 185.045 73.8796 142.256 106.229 109.146C138.578 76.0353 182.302 53.4043 200.419 45.3631L320.832 320.975Z" fill="#723CFF" stroke="white" stroke-width="2"/>
<path d="M308.405 -231L878.008 316.405L330.603 886.008L-239 338.603L308.405 -231Z" fill="url(#paint0_radial_36_482)"/>
<g filter="url(#filter1_d_36_482)">
<path d="M302.636 183.452H339V187.855H307.253V188.068L313.148 196.946H308.673L302.636 187.855V183.452ZM339.497 161.133C339.497 163.808 338.769 166.087 337.313 167.969C335.845 169.851 333.721 171.289 330.939 172.283C328.145 173.278 324.772 173.775 320.818 173.775C316.888 173.775 313.532 173.278 310.751 172.283C307.957 171.277 305.826 169.833 304.359 167.951C302.879 166.057 302.139 163.784 302.139 161.133C302.139 158.481 302.879 156.214 304.359 154.332C305.826 152.438 307.957 150.994 310.751 150C313.532 148.994 316.888 148.491 320.818 148.491C324.772 148.491 328.145 148.988 330.939 149.982C333.721 150.977 335.845 152.415 337.313 154.297C338.769 156.179 339.497 158.458 339.497 161.133ZM335.591 161.133C335.591 158.481 334.312 156.422 331.756 154.954C329.199 153.486 325.553 152.752 320.818 152.752C317.67 152.752 314.988 153.089 312.775 153.764C310.561 154.427 308.875 155.386 307.714 156.641C306.554 157.884 305.974 159.381 305.974 161.133C305.974 163.761 307.271 165.814 309.863 167.294C312.443 168.774 316.095 169.513 320.818 169.513C323.967 169.513 326.642 169.182 328.844 168.519C331.045 167.856 332.72 166.903 333.869 165.661C335.017 164.406 335.591 162.897 335.591 161.133ZM339.497 129.883C339.497 132.558 338.769 134.837 337.313 136.719C335.845 138.601 333.721 140.039 330.939 141.033C328.145 142.028 324.772 142.525 320.818 142.525C316.888 142.525 313.532 142.028 310.751 141.033C307.957 140.027 305.826 138.583 304.359 136.701C302.879 134.807 302.139 132.534 302.139 129.883C302.139 127.231 302.879 124.964 304.359 123.082C305.826 121.188 307.957 119.744 310.751 118.75C313.532 117.744 316.888 117.241 320.818 117.241C324.772 117.241 328.145 117.738 330.939 118.732C333.721 119.727 335.845 121.165 337.313 123.047C338.769 124.929 339.497 127.208 339.497 129.883ZM335.591 129.883C335.591 127.231 334.312 125.172 331.756 123.704C329.199 122.236 325.553 121.502 320.818 121.502C317.67 121.502 314.988 121.839 312.775 122.514C310.561 123.177 308.875 124.136 307.714 125.391C306.554 126.634 305.974 128.131 305.974 129.883C305.974 132.511 307.271 134.564 309.863 136.044C312.443 137.524 316.095 138.263 320.818 138.263C323.967 138.263 326.642 137.932 328.844 137.269C331.045 136.606 332.72 135.653 333.869 134.411C335.017 133.156 335.591 131.647 335.591 129.883Z" fill="white"/>
</g>
<g filter="url(#filter2_d_36_482)">
<path d="M111.264 347.5V344.304L123.267 331.165C124.676 329.626 125.836 328.288 126.747 327.152C127.659 326.004 128.333 324.927 128.771 323.92C129.221 322.902 129.446 321.837 129.446 320.724C129.446 319.446 129.138 318.339 128.523 317.404C127.919 316.469 127.09 315.747 126.037 315.238C124.983 314.729 123.8 314.474 122.486 314.474C121.089 314.474 119.87 314.764 118.828 315.344C117.798 315.913 116.999 316.712 116.431 317.741C115.875 318.771 115.597 319.979 115.597 321.364H111.406C111.406 319.233 111.897 317.363 112.88 315.753C113.862 314.143 115.2 312.888 116.893 311.989C118.597 311.089 120.509 310.639 122.628 310.639C124.759 310.639 126.647 311.089 128.292 311.989C129.937 312.888 131.228 314.102 132.163 315.629C133.098 317.156 133.565 318.854 133.565 320.724C133.565 322.062 133.323 323.37 132.837 324.648C132.364 325.915 131.535 327.33 130.352 328.892C129.18 330.443 127.552 332.337 125.469 334.574L117.301 343.31V343.594H134.205V347.5H111.264ZM153.398 347.997C150.723 347.997 148.445 347.269 146.562 345.813C144.68 344.345 143.242 342.221 142.248 339.439C141.254 336.645 140.756 333.272 140.756 329.318C140.756 325.388 141.254 322.032 142.248 319.251C143.254 316.457 144.698 314.326 146.58 312.859C148.474 311.379 150.747 310.639 153.398 310.639C156.05 310.639 158.317 311.379 160.199 312.859C162.093 314.326 163.537 316.457 164.531 319.251C165.537 322.032 166.04 325.388 166.04 329.318C166.04 333.272 165.543 336.645 164.549 339.439C163.555 342.221 162.116 344.345 160.234 345.813C158.352 347.269 156.074 347.997 153.398 347.997ZM153.398 344.091C156.05 344.091 158.11 342.812 159.577 340.256C161.045 337.699 161.779 334.053 161.779 329.318C161.779 326.17 161.442 323.488 160.767 321.275C160.104 319.061 159.145 317.375 157.891 316.214C156.648 315.054 155.15 314.474 153.398 314.474C150.771 314.474 148.717 315.771 147.237 318.363C145.758 320.943 145.018 324.595 145.018 329.318C145.018 332.467 145.349 335.142 146.012 337.344C146.675 339.545 147.628 341.22 148.871 342.369C150.125 343.517 151.635 344.091 153.398 344.091Z" fill="white"/>
</g>
<g filter="url(#filter3_d_36_482)">
<path d="M175.831 211.697C174.358 210.224 173.324 208.604 172.73 206.838C172.135 205.072 171.993 203.322 172.303 201.59C172.612 199.857 173.387 198.305 174.625 196.932L177.639 199.945C176.592 201.226 176.157 202.716 176.333 204.415C176.525 206.114 177.279 207.621 178.593 208.935C179.648 209.989 180.832 210.68 182.146 211.006C183.468 211.341 184.795 211.312 186.126 210.918C187.474 210.525 188.696 209.78 189.792 208.684C190.914 207.562 191.667 206.315 192.052 204.942C192.454 203.569 192.483 202.201 192.14 200.837C191.797 199.472 191.081 198.238 189.993 197.133C189.215 196.338 188.285 195.651 187.206 195.074C186.134 194.488 185.138 194.12 184.218 193.969L181.656 190.705L195.869 179.606L209.228 192.964L206.465 195.727L195.718 184.979L187.231 191.659L187.382 191.809C188.327 191.918 189.336 192.232 190.407 192.751C191.479 193.27 192.445 193.961 193.308 194.823C194.881 196.396 195.906 198.175 196.384 200.159C196.877 202.142 196.827 204.134 196.233 206.135C195.647 208.144 194.521 209.981 192.856 211.647C191.215 213.287 189.382 214.384 187.356 214.936C185.348 215.488 183.33 215.497 181.305 214.961C179.288 214.417 177.463 213.329 175.831 211.697ZM197.692 233.558C195.801 231.667 194.704 229.541 194.403 227.18C194.11 224.812 194.596 222.292 195.859 219.622C197.132 216.944 199.166 214.207 201.961 211.411C204.74 208.632 207.465 206.611 210.135 205.347C212.821 204.083 215.349 203.598 217.718 203.891C220.103 204.184 222.234 205.267 224.109 207.142C225.983 209.017 227.063 211.143 227.348 213.52C227.649 215.898 227.164 218.425 225.891 221.104C224.636 223.782 222.619 226.511 219.84 229.29C217.044 232.085 214.307 234.119 211.629 235.392C208.959 236.655 206.439 237.141 204.07 236.848C201.71 236.547 199.584 235.45 197.692 233.558ZM200.455 230.796C202.329 232.671 204.69 233.224 207.536 232.454C210.382 231.684 213.478 229.625 216.827 226.276C219.053 224.05 220.71 221.916 221.798 219.873C222.895 217.839 223.41 215.969 223.343 214.261C223.284 212.562 222.635 211.093 221.397 209.854C219.538 207.996 217.17 207.46 214.29 208.247C211.419 209.026 208.314 211.085 204.974 214.424C202.748 216.651 201.091 218.777 200.003 220.802C198.914 222.828 198.404 224.686 198.471 226.377C198.546 228.076 199.207 229.549 200.455 230.796Z" fill="white"/>
</g>
<g filter="url(#filter4_d_36_482)">
<path d="M303.636 503.452H340V507.855H308.253V508.068L314.148 516.946H309.673L303.636 507.855V503.452ZM340.497 481.133C340.497 483.808 339.769 486.087 338.313 487.969C336.845 489.851 334.721 491.289 331.939 492.283C329.145 493.278 325.772 493.775 321.818 493.775C317.888 493.775 314.532 493.278 311.751 492.283C308.957 491.277 306.826 489.833 305.359 487.951C303.879 486.057 303.139 483.784 303.139 481.133C303.139 478.481 303.879 476.214 305.359 474.332C306.826 472.438 308.957 470.994 311.751 470C314.532 468.994 317.888 468.491 321.818 468.491C325.772 468.491 329.145 468.988 331.939 469.982C334.721 470.977 336.845 472.415 338.313 474.297C339.769 476.179 340.497 478.458 340.497 481.133ZM336.591 481.133C336.591 478.481 335.312 476.422 332.756 474.954C330.199 473.486 326.553 472.752 321.818 472.752C318.67 472.752 315.988 473.089 313.775 473.764C311.561 474.427 309.875 475.386 308.714 476.641C307.554 477.884 306.974 479.381 306.974 481.133C306.974 483.761 308.271 485.814 310.863 487.294C313.443 488.774 317.095 489.513 321.818 489.513C324.967 489.513 327.642 489.182 329.844 488.519C332.045 487.856 333.72 486.903 334.869 485.661C336.017 484.406 336.591 482.897 336.591 481.133Z" fill="white"/>
</g>
<g filter="url(#filter5_d_36_482)">
<path d="M478.548 302.636V339H474.145V307.253H473.932L465.054 313.148V308.673L474.145 302.636H478.548ZM500.37 339.497C498.287 339.497 496.411 339.083 494.741 338.254C493.072 337.426 491.735 336.289 490.729 334.845C489.723 333.401 489.172 331.756 489.077 329.909H493.339C493.504 331.554 494.25 332.916 495.576 333.993C496.914 335.058 498.512 335.591 500.37 335.591C501.862 335.591 503.187 335.242 504.347 334.543C505.519 333.845 506.437 332.886 507.099 331.667C507.774 330.436 508.112 329.045 508.112 327.494C508.112 325.908 507.762 324.494 507.064 323.251C506.377 321.996 505.43 321.008 504.223 320.286C503.016 319.563 501.637 319.196 500.086 319.185C498.973 319.173 497.831 319.344 496.659 319.7C495.487 320.043 494.522 320.487 493.765 321.031L489.646 320.534L491.847 302.636H510.739V306.543H495.54L494.262 317.267H494.475C495.221 316.675 496.156 316.184 497.281 315.793C498.405 315.403 499.577 315.207 500.796 315.207C503.022 315.207 505.004 315.74 506.744 316.805C508.496 317.859 509.869 319.303 510.864 321.138C511.87 322.973 512.373 325.068 512.373 327.423C512.373 329.743 511.852 331.815 510.81 333.638C509.781 335.449 508.36 336.881 506.549 337.935C504.738 338.976 502.678 339.497 500.37 339.497Z" fill="white"/>
</g>
<g filter="url(#filter6_d_36_482)">
<path d="M423.31 241.827L421.05 239.567L420.246 221.789C420.154 219.705 420.029 217.939 419.87 216.491C419.702 215.034 419.418 213.796 419.016 212.774C418.614 211.737 418.02 210.824 417.233 210.037C416.329 209.133 415.329 208.568 414.233 208.342C413.144 208.108 412.048 208.183 410.943 208.568C409.838 208.954 408.821 209.611 407.892 210.54C406.905 211.527 406.247 212.595 405.921 213.741C405.595 214.871 405.595 216.001 405.921 217.131C406.256 218.253 406.913 219.303 407.892 220.282L404.929 223.245C403.423 221.739 402.447 220.069 402.004 218.236C401.56 216.403 401.619 214.57 402.18 212.737C402.749 210.895 403.782 209.226 405.281 207.727C406.787 206.221 408.44 205.204 410.24 204.676C412.04 204.149 413.81 204.095 415.551 204.513C417.292 204.932 418.824 205.802 420.146 207.125C421.092 208.07 421.845 209.167 422.406 210.414C422.967 211.645 423.381 213.231 423.649 215.173C423.917 217.098 424.105 219.588 424.214 222.643L424.616 234.595L424.817 234.796L436.769 222.844L439.531 225.606L423.31 241.827ZM453.455 212.385C451.563 214.277 449.437 215.373 447.077 215.675C444.708 215.968 442.189 215.482 439.519 214.218C436.84 212.946 434.103 210.912 431.308 208.117C428.529 205.338 426.507 202.613 425.243 199.943C423.98 197.256 423.494 194.729 423.787 192.36C424.08 189.974 425.164 187.844 427.039 185.969C428.914 184.094 431.04 183.015 433.417 182.73C435.794 182.429 438.322 182.914 441 184.186C443.679 185.442 446.407 187.459 449.186 190.238C451.982 193.034 454.016 195.771 455.288 198.449C456.552 201.119 457.037 203.638 456.744 206.007C456.443 208.368 455.347 210.494 453.455 212.385ZM450.693 209.623C452.568 207.748 453.12 205.388 452.35 202.542C451.58 199.696 449.521 196.599 446.173 193.251C443.946 191.025 441.812 189.367 439.77 188.279C437.736 187.183 435.865 186.668 434.158 186.735C432.458 186.794 430.99 187.442 429.751 188.681C427.893 190.539 427.357 192.908 428.144 195.787C428.922 198.658 430.981 201.764 434.321 205.103C436.547 207.33 438.673 208.987 440.699 210.075C442.724 211.163 444.583 211.674 446.273 211.607C447.972 211.532 449.446 210.87 450.693 209.623Z" fill="white"/>
</g>
<g filter="url(#filter7_d_36_482)">
<path d="M206.31 463.907L204.05 461.647L203.246 443.869C203.154 441.785 203.029 440.019 202.87 438.571C202.702 437.114 202.418 435.875 202.016 434.854C201.614 433.816 201.02 432.904 200.233 432.117C199.329 431.213 198.329 430.648 197.233 430.422C196.144 430.188 195.048 430.263 193.943 430.648C192.838 431.033 191.821 431.69 190.892 432.619C189.905 433.607 189.247 434.674 188.921 435.821C188.595 436.951 188.595 438.081 188.921 439.211C189.256 440.333 189.913 441.383 190.892 442.362L187.929 445.325C186.423 443.819 185.447 442.149 185.004 440.316C184.56 438.483 184.619 436.65 185.18 434.817C185.749 432.975 186.782 431.305 188.281 429.807C189.787 428.301 191.44 427.284 193.24 426.756C195.04 426.229 196.81 426.174 198.551 426.593C200.292 427.012 201.824 427.882 203.146 429.204C204.092 430.15 204.845 431.247 205.406 432.494C205.967 433.724 206.381 435.31 206.649 437.252C206.917 439.177 207.105 441.668 207.214 444.723L207.616 456.675L207.817 456.876L219.769 444.924L222.531 447.686L206.31 463.907Z" fill="white"/>
</g>
<g filter="url(#filter8_d_36_482)">
<path d="M447.831 455.697C446.358 454.224 445.324 452.604 444.73 450.838C444.135 449.072 443.993 447.322 444.303 445.59C444.612 443.857 445.387 442.305 446.625 440.932L449.639 443.945C448.592 445.226 448.157 446.716 448.333 448.415C448.525 450.114 449.279 451.621 450.593 452.935C451.647 453.989 452.832 454.68 454.146 455.006C455.468 455.341 456.795 455.312 458.126 454.918C459.474 454.525 460.696 453.78 461.792 452.684C462.914 451.562 463.667 450.315 464.052 448.942C464.454 447.569 464.483 446.201 464.14 444.837C463.797 443.472 463.081 442.238 461.993 441.133C461.215 440.338 460.285 439.651 459.206 439.074C458.134 438.488 457.138 438.12 456.218 437.969L453.656 434.705L467.869 423.606L481.227 436.964L478.465 439.727L467.718 428.979L459.231 435.659L459.381 435.809C460.327 435.918 461.336 436.232 462.407 436.751C463.479 437.27 464.445 437.961 465.307 438.823C466.881 440.396 467.906 442.175 468.384 444.159C468.877 446.142 468.827 448.134 468.233 450.135C467.647 452.144 466.521 453.981 464.856 455.647C463.215 457.287 461.382 458.384 459.356 458.936C457.348 459.488 455.33 459.497 453.305 458.961C451.288 458.417 449.463 457.329 447.831 455.697Z" fill="white"/>
</g>
</g>
<defs>
<filter id="filter0_d_36_482" x="195.031" y="18.6243" width="240.349" height="313.166" filterUnits="userSpaceOnUse" color-interpolation-filters="sRGB">
<feFlood flood-opacity="0" result="BackgroundImageFix"/>
<feColorMatrix in="SourceAlpha" type="matrix" values="0 0 0 0 0 0 0 0 0 0 0 0 0 0 0 0 0 0 127 0" result="hardAlpha"/>
<feOffset dy="4"/>
<feGaussianBlur stdDeviation="2"/>
<feComposite in2="hardAlpha" operator="out"/>
<feColorMatrix type="matrix" values="0 0 0 0 0 0 0 0 0 0 0 0 0 0 0 0 0 0 0.25 0"/>
<feBlend mode="normal" in2="BackgroundImageFix" result="effect1_dropShadow_36_482"/>
<feBlend mode="normal" in="SourceGraphic" in2="effect1_dropShadow_36_482" result="shape"/>
</filter>
<filter id="filter1_d_36_482" x="298.139" y="117.241" width="45.358" height="87.7053" filterUnits="userSpaceOnUse" color-interpolation-filters="sRGB">
<feFlood flood-opacity="0" result="BackgroundImageFix"/>
<feColorMatrix in="SourceAlpha" type="matrix" values="0 0 0 0 0 0 0 0 0 0 0 0 0 0 0 0 0 0 127 0" result="hardAlpha"/>
<feOffset dy="4"/>
<feGaussianBlur stdDeviation="2"/>
<feComposite in2="hardAlpha" operator="out"/>
<feColorMatrix type="matrix" values="0 0 0 0 0 0 0 0 0 0 0 0 0 0 0 0 0 0 0.25 0"/>
<feBlend mode="normal" in2="BackgroundImageFix" result="effect1_dropShadow_36_482"/>
<feBlend mode="normal" in="SourceGraphic" in2="effect1_dropShadow_36_482" result="shape"/>
</filter>
<filter id="filter2_d_36_482" x="107.264" y="310.639" width="62.7764" height="45.3579" filterUnits="userSpaceOnUse" color-interpolation-filters="sRGB">
<feFlood flood-opacity="0" result="BackgroundImageFix"/>
<feColorMatrix in="SourceAlpha" type="matrix" values="0 0 0 0 0 0 0 0 0 0 0 0 0 0 0 0 0 0 127 0" result="hardAlpha"/>
<feOffset dy="4"/>
<feGaussianBlur stdDeviation="2"/>
<feComposite in2="hardAlpha" operator="out"/>
<feColorMatrix type="matrix" values="0 0 0 0 0 0 0 0 0 0 0 0 0 0 0 0 0 0 0.25 0"/>
<feBlend mode="normal" in2="BackgroundImageFix" result="effect1_dropShadow_36_482"/>
<feBlend mode="normal" in="SourceGraphic" in2="effect1_dropShadow_36_482" result="shape"/>
</filter>
<filter id="filter3_d_36_482" x="163.846" y="177.296" width="73.202" height="73.2021" filterUnits="userSpaceOnUse" color-interpolation-filters="sRGB">
<feFlood flood-opacity="0" result="BackgroundImageFix"/>
<feColorMatrix in="SourceAlpha" type="matrix" values="0 0 0 0 0 0 0 0 0 0 0 0 0 0 0 0 0 0 127 0" result="hardAlpha"/>
<feOffset dy="4"/>
<feGaussianBlur stdDeviation="2"/>
<feComposite in2="hardAlpha" operator="out"/>
<feColorMatrix type="matrix" values="0 0 0 0 0 0 0 0 0 0 0 0 0 0 0 0 0 0 0.25 0"/>
<feBlend mode="normal" in2="BackgroundImageFix" result="effect1_dropShadow_36_482"/>
<feBlend mode="normal" in="SourceGraphic" in2="effect1_dropShadow_36_482" result="shape"/>
</filter>
<filter id="filter4_d_36_482" x="299.139" y="468.491" width="45.358" height="56.4553" filterUnits="userSpaceOnUse" color-interpolation-filters="sRGB">
<feFlood flood-opacity="0" result="BackgroundImageFix"/>
<feColorMatrix in="SourceAlpha" type="matrix" values="0 0 0 0 0 0 0 0 0 0 0 0 0 0 0 0 0 0 127 0" result="hardAlpha"/>
<feOffset dy="4"/>
<feGaussianBlur stdDeviation="2"/>
<feComposite in2="hardAlpha" operator="out"/>
<feColorMatrix type="matrix" values="0 0 0 0 0 0 0 0 0 0 0 0 0 0 0 0 0 0 0.25 0"/>
<feBlend mode="normal" in2="BackgroundImageFix" result="effect1_dropShadow_36_482"/>
<feBlend mode="normal" in="SourceGraphic" in2="effect1_dropShadow_36_482" result="shape"/>
</filter>
<filter id="filter5_d_36_482" x="461.054" y="302.636" width="55.3189" height="44.8606" filterUnits="userSpaceOnUse" color-interpolation-filters="sRGB">
<feFlood flood-opacity="0" result="BackgroundImageFix"/>
<feColorMatrix in="SourceAlpha" type="matrix" values="0 0 0 0 0 0 0 0 0 0 0 0 0 0 0 0 0 0 127 0" result="hardAlpha"/>
<feOffset dy="4"/>
<feGaussianBlur stdDeviation="2"/>
<feComposite in2="hardAlpha" operator="out"/>
<feColorMatrix type="matrix" values="0 0 0 0 0 0 0 0 0 0 0 0 0 0 0 0 0 0 0.25 0"/>
<feBlend mode="normal" in2="BackgroundImageFix" result="effect1_dropShadow_36_482"/>
<feBlend mode="normal" in="SourceGraphic" in2="effect1_dropShadow_36_482" result="shape"/>
</filter>
<filter id="filter6_d_36_482" x="393.245" y="177.03" width="73.1488" height="73.1487" filterUnits="userSpaceOnUse" color-interpolation-filters="sRGB">
<feFlood flood-opacity="0" result="BackgroundImageFix"/>
<feColorMatrix in="SourceAlpha" type="matrix" values="0 0 0 0 0 0 0 0 0 0 0 0 0 0 0 0 0 0 127 0" result="hardAlpha"/>
<feOffset dy="4"/>
<feGaussianBlur stdDeviation="2"/>
<feComposite in2="hardAlpha" operator="out"/>
<feColorMatrix type="matrix" values="0 0 0 0 0 0 0 0 0 0 0 0 0 0 0 0 0 0 0.25 0"/>
<feBlend mode="normal" in2="BackgroundImageFix" result="effect1_dropShadow_36_482"/>
<feBlend mode="normal" in="SourceGraphic" in2="effect1_dropShadow_36_482" result="shape"/>
</filter>
<filter id="filter7_d_36_482" x="176.245" y="421.621" width="50.2859" height="50.2859" filterUnits="userSpaceOnUse" color-interpolation-filters="sRGB">
<feFlood flood-opacity="0" result="BackgroundImageFix"/>
<feColorMatrix in="SourceAlpha" type="matrix" values="0 0 0 0 0 0 0 0 0 0 0 0 0 0 0 0 0 0 127 0" result="hardAlpha"/>
<feOffset dy="4"/>
<feGaussianBlur stdDeviation="2"/>
<feComposite in2="hardAlpha" operator="out"/>
<feColorMatrix type="matrix" values="0 0 0 0 0 0 0 0 0 0 0 0 0 0 0 0 0 0 0.25 0"/>
<feBlend mode="normal" in2="BackgroundImageFix" result="effect1_dropShadow_36_482"/>
<feBlend mode="normal" in="SourceGraphic" in2="effect1_dropShadow_36_482" result="shape"/>
</filter>
<filter id="filter8_d_36_482" x="435.846" y="421.647" width="50.5369" height="50.5369" filterUnits="userSpaceOnUse" color-interpolation-filters="sRGB">
<feFlood flood-opacity="0" result="BackgroundImageFix"/>
<feColorMatrix in="SourceAlpha" type="matrix" values="0 0 0 0 0 0 0 0 0 0 0 0 0 0 0 0 0 0 127 0" result="hardAlpha"/>
<feOffset dy="4"/>
<feGaussianBlur stdDeviation="2"/>
<feComposite in2="hardAlpha" operator="out"/>
<feColorMatrix type="matrix" values="0 0 0 0 0 0 0 0 0 0 0 0 0 0 0 0 0 0 0.25 0"/>
<feBlend mode="normal" in2="BackgroundImageFix" result="effect1_dropShadow_36_482"/>
<feBlend mode="normal" in="SourceGraphic" in2="effect1_dropShadow_36_482" result="shape"/>
</filter>
<radialGradient id="paint0_radial_36_482" cx="0" cy="0" r="1" gradientUnits="userSpaceOnUse" gradientTransform="translate(319.504 327.504) rotate(133.862) scale(395 395)">
<stop offset="0.567708" stop-color="white" stop-opacity="0"/>
<stop offset="0.601269" stop-color="white" stop-opacity="0.0425001"/>
<stop offset="0.708333" stop-color="white" stop-opacity="0.350625"/>
<stop offset="0.73956" stop-color="white" stop-opacity="0"/>
<stop offset="0.755208" stop-color="white" stop-opacity="0"/>
</radialGradient>
<clipPath id="clip0_36_482">
<rect width="641" height="642" fill="white"/>
</clipPath>
</defs>
</svg>
