<svg width="100" height="100" viewBox="0 0 152 155" fill="none" xmlns="http://www.w3.org/2000/svg">
<path d="M22.3649 29.5563C23.3148 27.8521 23.7898 27 24.5 27C25.2102 27 25.6851 27.8521 26.6351 29.5563L26.8809 29.9972C27.1509 30.4815 27.2858 30.7236 27.4963 30.8834C27.7068 31.0431 27.9688 31.1024 28.4931 31.221L28.9704 31.329C30.8151 31.7464 31.7375 31.9551 31.9569 32.6608C32.1764 33.3665 31.5476 34.1018 30.2899 35.5724L29.9646 35.9529C29.6072 36.3708 29.4285 36.5798 29.3481 36.8383C29.2677 37.0968 29.2947 37.3756 29.3487 37.9332L29.3979 38.4408C29.5881 40.403 29.6832 41.384 29.1087 41.8202C28.5341 42.2563 27.6705 41.8586 25.9432 41.0634L25.4964 40.8576C25.0056 40.6316 24.7602 40.5186 24.5 40.5186C24.2398 40.5186 23.9944 40.6316 23.5036 40.8576L23.0568 41.0634C21.3295 41.8586 20.4659 42.2563 19.8914 41.8202C19.3168 41.384 19.4119 40.403 19.602 38.4408L19.6512 37.9332C19.7053 37.3756 19.7323 37.0968 19.6519 36.8383C19.5715 36.5798 19.3928 36.3708 19.0354 35.9529L18.7101 35.5724C17.4524 34.1018 16.8236 33.3665 17.0431 32.6608C17.2625 31.9551 18.1849 31.7464 20.0297 31.329L20.5069 31.221C21.0311 31.1024 21.2932 31.0431 21.5037 30.8834C21.7142 30.7236 21.8491 30.4815 22.1191 29.9972L22.3649 29.5563Z" fill="white" fill-opacity="0.5"/>
<path d="M22.3649 123.556C23.3148 121.852 23.7898 121 24.5 121C25.2102 121 25.6851 121.852 26.6351 123.556L26.8809 123.997C27.1509 124.481 27.2858 124.724 27.4963 124.883C27.7068 125.043 27.9688 125.102 28.4931 125.221L28.9704 125.329C30.8151 125.746 31.7375 125.955 31.9569 126.661C32.1764 127.366 31.5476 128.102 30.2899 129.572L29.9646 129.953C29.6072 130.371 29.4285 130.58 29.3481 130.838C29.2677 131.097 29.2947 131.376 29.3487 131.933L29.3979 132.441C29.5881 134.403 29.6832 135.384 29.1087 135.82C28.5341 136.256 27.6705 135.859 25.9432 135.063L25.4964 134.858C25.0056 134.632 24.7602 134.519 24.5 134.519C24.2398 134.519 23.9944 134.632 23.5036 134.858L23.0568 135.063C21.3295 135.859 20.4659 136.256 19.8914 135.82C19.3168 135.384 19.4119 134.403 19.602 132.441L19.6512 131.933C19.7053 131.376 19.7323 131.097 19.6519 130.838C19.5715 130.58 19.3928 130.371 19.0354 129.953L18.7101 129.572C17.4524 128.102 16.8236 127.366 17.0431 126.661C17.2625 125.955 18.1849 125.746 20.0297 125.329L20.5069 125.221C21.0311 125.102 21.2932 125.043 21.5037 124.883C21.7142 124.724 21.8491 124.481 22.1191 123.997L22.3649 123.556Z" fill="white" fill-opacity="0.5"/>
<path d="M5.36486 75.5563C6.31484 73.8521 6.78982 73 7.49999 73C8.21017 73 8.68514 73.8521 9.63509 75.5563L9.88086 75.9972C10.1509 76.4815 10.2858 76.7236 10.4963 76.8834C10.7068 77.0431 10.9688 77.1024 11.4931 77.221L11.9704 77.329C13.8151 77.7464 14.7375 77.9551 14.9569 78.6608C15.1764 79.3665 14.5476 80.1018 13.2899 81.5724L12.9646 81.9529C12.6072 82.3708 12.4285 82.5798 12.3481 82.8383C12.2677 83.0968 12.2947 83.3756 12.3487 83.9332L12.3979 84.4408C12.5881 86.403 12.6832 87.384 12.1087 87.8202C11.5341 88.2563 10.6705 87.8586 8.94322 87.0634L8.49637 86.8576C8.00557 86.6316 7.76017 86.5186 7.49999 86.5186C7.23982 86.5186 6.99442 86.6316 6.50362 86.8576L6.05677 87.0634C4.32951 87.8586 3.46588 88.2563 2.89136 87.8202C2.31684 87.384 2.41191 86.403 2.60205 84.4408L2.65123 83.9332C2.70527 83.3756 2.73229 83.0968 2.65189 82.8383C2.57151 82.5798 2.39282 82.3708 2.03544 81.9529L1.71007 81.5724C0.452438 80.1018 -0.176383 79.3665 0.0430664 78.6608C0.262516 77.9551 1.18489 77.7464 3.02965 77.329L3.50691 77.221C4.03113 77.1024 4.29324 77.0431 4.5037 76.8834C4.71416 76.7236 4.84914 76.4815 5.1191 75.9972L5.36486 75.5563Z" fill="white" fill-opacity="0.5"/>
<path d="M75.3649 142.556C76.3148 140.852 76.7898 140 77.5 140C78.2102 140 78.6851 140.852 79.6351 142.556L79.8809 142.997C80.1509 143.481 80.2858 143.724 80.4963 143.883C80.7068 144.043 80.9688 144.102 81.4931 144.221L81.9704 144.329C83.8151 144.746 84.7375 144.955 84.9569 145.661C85.1764 146.366 84.5476 147.102 83.2899 148.572L82.9646 148.953C82.6072 149.371 82.4285 149.58 82.3481 149.838C82.2677 150.097 82.2947 150.376 82.3487 150.933L82.3979 151.441C82.5881 153.403 82.6832 154.384 82.1087 154.82C81.5341 155.256 80.6705 154.859 78.9432 154.063L78.4964 153.858C78.0056 153.632 77.7602 153.519 77.5 153.519C77.2398 153.519 76.9944 153.632 76.5036 153.858L76.0568 154.063C74.3295 154.859 73.4659 155.256 72.8914 154.82C72.3168 154.384 72.4119 153.403 72.602 151.441L72.6512 150.933C72.7053 150.376 72.7323 150.097 72.6519 149.838C72.5715 149.58 72.3928 149.371 72.0354 148.953L71.7101 148.572C70.4524 147.102 69.8236 146.366 70.0431 145.661C70.2625 144.955 71.1849 144.746 73.0297 144.329L73.5069 144.221C74.0311 144.102 74.2932 144.043 74.5037 143.883C74.7142 143.724 74.8491 143.481 75.1191 142.997L75.3649 142.556Z" fill="white" fill-opacity="0.5"/>
<path d="M74.1532 3.40838C75.4198 1.13613 76.0531 0 77 0C77.9469 0 78.5802 1.13612 79.8468 3.40837L80.1745 3.99624C80.5345 4.64194 80.7144 4.9648 80.9951 5.17782C81.2757 5.39084 81.6251 5.46991 82.3241 5.62806L82.9605 5.77204C85.4201 6.32857 86.65 6.60683 86.9426 7.54774C87.2352 8.48861 86.3968 9.46911 84.7199 11.4299L84.2861 11.9372C83.8096 12.4944 83.5713 12.773 83.4641 13.1177C83.357 13.4624 83.393 13.8341 83.465 14.5776L83.5306 15.2544C83.7841 17.8706 83.9109 19.1787 83.1449 19.7602C82.3788 20.3417 81.2273 19.8115 78.9243 18.7512L78.3285 18.4768C77.6741 18.1755 77.3469 18.0248 77 18.0248C76.6531 18.0248 76.3259 18.1755 75.6715 18.4768L75.0757 18.7512C72.7727 19.8115 71.6212 20.3417 70.8551 19.7602C70.0891 19.1787 70.2159 17.8706 70.4694 15.2544L70.535 14.5776C70.607 13.8341 70.643 13.4624 70.5359 13.1177C70.4287 12.773 70.1904 12.4944 69.7139 11.9372L69.2801 11.4299C67.6033 9.46911 66.7648 8.48861 67.0574 7.54774C67.35 6.60683 68.5799 6.32857 71.0395 5.77204L71.6759 5.62806C72.3748 5.46991 72.7243 5.39084 73.0049 5.17782C73.2855 4.9648 73.4655 4.64195 73.8255 3.99624L74.1532 3.40838Z" fill="white"/>
<path d="M142.365 75.5563C143.315 73.8521 143.79 73 144.5 73C145.21 73 145.685 73.8521 146.635 75.5563L146.881 75.9972C147.151 76.4815 147.286 76.7236 147.496 76.8834C147.707 77.0431 147.969 77.1024 148.493 77.221L148.97 77.329C150.815 77.7464 151.737 77.9551 151.957 78.6608C152.176 79.3665 151.548 80.1018 150.29 81.5724L149.965 81.9529C149.607 82.3708 149.428 82.5798 149.348 82.8383C149.268 83.0968 149.295 83.3756 149.349 83.9332L149.398 84.4408C149.588 86.403 149.683 87.384 149.109 87.8202C148.534 88.2563 147.67 87.8586 145.943 87.0634L145.496 86.8576C145.006 86.6316 144.76 86.5186 144.5 86.5186C144.24 86.5186 143.994 86.6316 143.504 86.8576L143.057 87.0634C141.33 87.8586 140.466 88.2563 139.891 87.8202C139.317 87.384 139.412 86.403 139.602 84.4408L139.651 83.9332C139.705 83.3756 139.732 83.0968 139.652 82.8383C139.572 82.5798 139.393 82.3708 139.035 81.9529L138.71 81.5724C137.452 80.1018 136.824 79.3665 137.043 78.6608C137.263 77.9551 138.185 77.7464 140.03 77.329L140.507 77.221C141.031 77.1024 141.293 77.0431 141.504 76.8834C141.714 76.7236 141.849 76.4815 142.119 75.9972L142.365 75.5563Z" fill="white" fill-opacity="0.5"/>
<path d="M125.365 123.556C126.315 121.852 126.79 121 127.5 121C128.21 121 128.685 121.852 129.635 123.556L129.881 123.997C130.151 124.481 130.286 124.724 130.496 124.883C130.707 125.043 130.969 125.102 131.493 125.221L131.97 125.329C133.815 125.746 134.737 125.955 134.957 126.661C135.176 127.366 134.548 128.102 133.29 129.572L132.965 129.953C132.607 130.371 132.428 130.58 132.348 130.838C132.268 131.097 132.295 131.376 132.349 131.933L132.398 132.441C132.588 134.403 132.683 135.384 132.109 135.82C131.534 136.256 130.67 135.859 128.943 135.063L128.496 134.858C128.006 134.632 127.76 134.519 127.5 134.519C127.24 134.519 126.994 134.632 126.504 134.858L126.057 135.063C124.33 135.859 123.466 136.256 122.891 135.82C122.317 135.384 122.412 134.403 122.602 132.441L122.651 131.933C122.705 131.376 122.732 131.097 122.652 130.838C122.572 130.58 122.393 130.371 122.035 129.953L121.71 129.572C120.452 128.102 119.824 127.366 120.043 126.661C120.263 125.955 121.185 125.746 123.03 125.329L123.507 125.221C124.031 125.102 124.293 125.043 124.504 124.883C124.714 124.724 124.849 124.481 125.119 123.997L125.365 123.556Z" fill="white" fill-opacity="0.5"/>
<path d="M125.365 29.5563C126.315 27.8521 126.79 27 127.5 27C128.21 27 128.685 27.8521 129.635 29.5563L129.881 29.9972C130.151 30.4815 130.286 30.7236 130.496 30.8834C130.707 31.0431 130.969 31.1024 131.493 31.221L131.97 31.329C133.815 31.7464 134.737 31.9551 134.957 32.6608C135.176 33.3665 134.548 34.1018 133.29 35.5724L132.965 35.9529C132.607 36.3708 132.428 36.5798 132.348 36.8383C132.268 37.0968 132.295 37.3756 132.349 37.9332L132.398 38.4408C132.588 40.403 132.683 41.384 132.109 41.8202C131.534 42.2563 130.67 41.8586 128.943 41.0634L128.496 40.8576C128.006 40.6316 127.76 40.5186 127.5 40.5186C127.24 40.5186 126.994 40.6316 126.504 40.8576L126.057 41.0634C124.33 41.8586 123.466 42.2563 122.891 41.8202C122.317 41.384 122.412 40.403 122.602 38.4408L122.651 37.9332C122.705 37.3756 122.732 37.0968 122.652 36.8383C122.572 36.5798 122.393 36.3708 122.035 35.9529L121.71 35.5724C120.452 34.1018 119.824 33.3665 120.043 32.6608C120.263 31.9551 121.185 31.7464 123.03 31.329L123.507 31.221C124.031 31.1024 124.293 31.0431 124.504 30.8834C124.714 30.7236 124.849 30.4815 125.119 29.9972L125.365 29.5563Z" fill="white" fill-opacity="0.5"/>
</svg>
