<svg width="103" height="100" viewBox="0 0 103 100" fill="none" xmlns="http://www.w3.org/2000/svg">
<path d="M18.5941 24.3315C18.6131 25.5901 18.6226 26.2194 18.2258 26.4485C17.829 26.6776 17.2887 26.3547 16.2082 25.709L15.9287 25.5419C15.6216 25.3584 15.4681 25.2667 15.2989 25.2453C15.1298 25.224 14.9643 25.2754 14.6331 25.3782L14.3316 25.4718C13.1663 25.8337 12.5836 26.0146 12.2333 25.6911C11.883 25.3676 11.9972 24.754 12.2255 23.5266L12.2845 23.2091C12.3494 22.8603 12.3818 22.6859 12.3434 22.5155C12.3049 22.3451 12.1999 22.1981 11.9898 21.9039L11.7986 21.6362C11.0594 20.6012 10.6898 20.0838 10.8701 19.6548C11.0504 19.2257 11.6612 19.1694 12.8828 19.0565L13.1989 19.0273C13.546 18.9953 13.7195 18.9793 13.8649 18.8953C14.0103 18.8114 14.111 18.6691 14.3123 18.3845L14.4955 18.1254C15.2041 17.1239 15.5583 16.6231 16.02 16.6814C16.4818 16.7398 16.7451 17.3186 17.2718 18.4762L17.4081 18.7757C17.5577 19.1047 17.6326 19.2692 17.7609 19.3877C17.8892 19.5062 18.0564 19.5653 18.3909 19.6835L18.6954 19.7912C19.8725 20.2071 20.4611 20.4151 20.5661 20.8802C20.6711 21.3453 20.2231 21.7594 19.327 22.5878L19.0952 22.802C18.8406 23.0374 18.7133 23.1551 18.6472 23.3122C18.5811 23.4694 18.5838 23.6482 18.5892 24.0059L18.5941 24.3315Z" fill="white" fill-opacity="0.5"/>
<path d="M13.7328 85.6909C12.4743 85.7099 11.8451 85.7193 11.616 85.3225C11.3869 84.9257 11.7097 84.3855 12.3554 83.3051L12.5225 83.0255C12.7058 82.7185 12.798 82.5647 12.819 82.3958C12.8405 82.2266 12.7889 82.0612 12.6863 81.7298L12.5927 81.4283C12.2306 80.2631 12.0498 79.6803 12.3735 79.33C12.6966 78.98 13.3106 79.0939 14.5377 79.3224L14.8555 79.3812C15.2043 79.4461 15.3787 79.4785 15.5488 79.4402C15.7195 79.4016 15.8667 79.2965 16.1604 79.0866L16.4284 78.8953C17.4633 78.1561 17.9807 77.7865 18.4096 77.9669C18.8386 78.1473 18.8954 78.7578 19.0078 79.9797L19.0374 80.2955C19.0694 80.6426 19.0855 80.8162 19.1694 80.9615C19.2533 81.1069 19.3956 81.2076 19.6802 81.4089L19.9389 81.5924C20.9408 82.3007 21.4412 82.6552 21.383 83.1168C21.3247 83.5785 20.7459 83.8418 19.5884 84.3685L19.2887 84.5049C18.96 84.6543 18.7954 84.7293 18.6766 84.8577C18.5584 84.9859 18.4993 85.1531 18.381 85.4877L18.2731 85.7923C17.8575 86.9692 17.6491 87.558 17.1844 87.6627C16.7192 87.7679 16.3048 87.32 15.4767 86.4237L15.2625 86.1919C15.0269 85.9374 14.9094 85.81 14.7521 85.744C14.5953 85.6777 14.416 85.6807 14.0585 85.686L13.7328 85.6909Z" fill="white" fill-opacity="0.5"/>
<path d="M6.21623 55.125C5.60334 56.2245 5.2969 56.7742 4.83873 56.7742C4.38055 56.7742 4.07411 56.2245 3.46124 55.125L3.30268 54.8405C3.12846 54.5281 3.04143 54.3719 2.90562 54.2688C2.76982 54.1657 2.60078 54.1275 2.26253 54.051L1.95459 53.9813C0.764462 53.712 0.169365 53.5774 0.0278168 53.1221C-0.113796 52.6668 0.291881 52.1924 1.1033 51.2436L1.31317 50.9981C1.54375 50.7285 1.65904 50.5937 1.71091 50.4269C1.76278 50.2601 1.74537 50.0803 1.71053 49.7205L1.67878 49.393C1.55607 48.1271 1.49472 47.4942 1.86537 47.2128C2.23607 46.9314 2.79324 47.188 3.90761 47.701L4.1959 47.8338C4.51255 47.9796 4.67087 48.0525 4.83873 48.0525C5.00658 48.0525 5.1649 47.9796 5.48155 47.8338L5.76984 47.701C6.8842 47.188 7.44138 46.9314 7.81204 47.2128C8.18269 47.4942 8.12136 48.1271 7.99869 49.393L7.96696 49.7205C7.93209 50.0803 7.91466 50.2601 7.96653 50.4269C8.01839 50.5937 8.13367 50.7285 8.36424 50.9981L8.57416 51.2436C9.38553 52.1924 9.79122 52.6668 9.64964 53.1221C9.50806 53.5774 8.91298 53.712 7.72282 53.9813L7.41491 54.051C7.0767 54.1275 6.9076 54.1657 6.77182 54.2688C6.63604 54.3719 6.54895 54.5281 6.37478 54.8405L6.21623 55.125Z" fill="white" fill-opacity="0.5"/>
<path d="M48.4934 91.649C49.1063 90.5497 49.4127 90 49.8709 90C50.3291 90 50.6355 90.5497 51.2484 91.649L51.407 91.9335C51.5812 92.2458 51.6682 92.4026 51.804 92.5052C51.9398 92.6084 52.1088 92.6464 52.4471 92.7232L52.755 92.7929C53.9452 93.0619 54.5403 93.1968 54.6818 93.6523C54.8234 94.1071 54.4177 94.5819 53.6063 95.5303L53.3964 95.7761C53.1659 96.0458 53.0506 96.1806 52.9987 96.3471C52.9468 96.5142 52.9643 96.6942 52.9991 97.0535L53.0308 97.3813C53.1535 98.6471 53.2149 99.28 52.8443 99.5613C52.4735 99.8426 51.9164 99.5865 50.802 99.0729L50.5137 98.9406C50.1971 98.7948 50.0388 98.7219 49.8709 98.7219C49.703 98.7219 49.5447 98.7948 49.2281 98.9406L48.9398 99.0729C47.8254 99.5865 47.2683 99.8426 46.8976 99.5613C46.5269 99.28 46.5882 98.6471 46.7109 97.3813L46.7426 97.0535C46.7775 96.6942 46.795 96.5142 46.7431 96.3471C46.6912 96.1806 46.5759 96.0458 46.3453 95.7761L46.1355 95.5303C45.3241 94.5819 44.9184 94.1071 45.06 93.6523C45.2015 93.1968 45.7966 93.0619 46.9868 92.7929L47.2947 92.7232C47.6329 92.6464 47.802 92.6084 47.9378 92.5052C48.0736 92.4026 48.1606 92.2458 48.3348 91.9335L48.4934 91.649Z" fill="white" fill-opacity="0.5"/>
<path d="M48.3971 2.55629C49.347 0.852099 49.822 0 50.5322 0C51.2424 0 51.7173 0.852091 52.6673 2.55628L52.9131 2.99718C53.1831 3.48146 53.318 3.72361 53.5285 3.88337C53.739 4.04314 54.001 4.10244 54.5253 4.22105L55.0026 4.32904C56.8473 4.74643 57.7697 4.95513 57.9891 5.66081C58.2086 6.36647 57.5798 7.10184 56.3221 8.57244L55.9968 8.95291C55.6394 9.37081 55.4607 9.57976 55.3803 9.83829C55.2999 10.0968 55.3269 10.3756 55.3809 10.9332L55.4301 11.4408C55.6203 13.403 55.7154 14.384 55.1409 14.8202C54.5663 15.2563 53.7027 14.8586 51.9754 14.0634L51.5286 13.8576C51.0378 13.6316 50.7924 13.5186 50.5322 13.5186C50.272 13.5186 50.0266 13.6316 49.5358 13.8576L49.089 14.0634C47.3617 14.8586 46.4981 15.2563 45.9235 14.8202C45.349 14.384 45.4441 13.403 45.6343 11.4408L45.6835 10.9332C45.7375 10.3756 45.7644 10.0968 45.6841 9.83829C45.6037 9.57976 45.425 9.37081 45.0676 8.95291L44.7423 8.57244C43.4847 7.10184 42.8558 6.36647 43.0753 5.66081C43.2947 4.95513 44.2171 4.74643 46.0618 4.32904L46.5391 4.22105C47.0633 4.10244 47.3254 4.04314 47.5359 3.88337C47.7463 3.72361 47.8813 3.48147 48.1513 2.99718L48.3971 2.55629Z" fill="white"/>
<path d="M92.1589 51.2079C91.5131 50.1274 91.1903 49.5871 91.4193 49.1904C91.6483 48.7937 92.2777 48.8032 93.5363 48.8221L93.862 48.8269C94.2197 48.8323 94.3985 48.835 94.5555 48.7692C94.7128 48.7028 94.8305 48.5755 95.0658 48.321L95.28 48.0894C96.1083 47.1932 96.5224 46.7453 96.9876 46.8501C97.4526 46.9553 97.6608 47.5434 98.0767 48.7207L98.1844 49.025C98.3024 49.3598 98.3615 49.5273 98.4801 49.6553C98.5987 49.7834 98.7632 49.8583 99.0922 50.008L99.3916 50.1444C100.549 50.6712 101.128 50.9345 101.187 51.396C101.245 51.8579 100.744 52.2124 99.7424 52.9208L99.4832 53.1041C99.1989 53.305 99.0564 53.406 98.9725 53.5513C98.8886 53.6965 98.8724 53.8704 98.8406 54.2171L98.8114 54.5332C98.6986 55.7547 98.6421 56.3657 98.213 56.5463C97.7841 56.7263 97.2666 56.3568 96.2316 55.6176L95.9638 55.4265C95.6697 55.2165 95.5226 55.1115 95.3524 55.0728C95.1821 55.0341 95.0076 55.0667 94.6586 55.1319L94.3412 55.1907C93.1137 55.4192 92.5003 55.5329 92.1767 55.1829C91.8533 54.8323 92.0341 54.2499 92.3961 53.0844L92.4896 52.783C92.5924 52.452 92.6438 52.2865 92.6226 52.1171C92.6011 51.9482 92.5094 51.7947 92.3259 51.4876L92.1589 51.2079Z" fill="white" fill-opacity="0.5"/>
<path d="M80.649 84.2161C79.5496 83.6032 79 83.2967 79 82.8387C79 82.3806 79.5496 82.0742 80.649 81.4613L80.9335 81.3025C81.2458 81.1284 81.4026 81.0413 81.5051 80.9058C81.6084 80.7696 81.6464 80.6006 81.7232 80.2625L81.7929 79.9548C82.0619 78.7645 82.1967 78.1696 82.6522 78.0277C83.1071 77.8864 83.5819 78.2916 84.5303 79.1032L84.7761 79.3129C85.0458 79.5438 85.1806 79.6593 85.3471 79.7109C85.5142 79.7625 85.6942 79.7451 86.0535 79.7103L86.3813 79.6787C87.6471 79.5561 88.28 79.4948 88.5613 79.8651C88.8426 80.2361 88.5864 80.7935 88.0729 81.9077L87.9406 82.1961C87.7948 82.5122 87.7219 82.6709 87.7219 82.8387C87.7219 83.0064 87.7948 83.1651 87.9406 83.4813L88.0729 83.7696C88.5864 84.8838 88.8426 85.4413 88.5613 85.8122C88.28 86.1825 87.6471 86.1213 86.3813 85.9987L86.0535 85.9671C85.6942 85.9322 85.5142 85.9148 85.3471 85.9664C85.1806 86.018 85.0458 86.1335 84.7761 86.3645L84.5303 86.5742C83.5819 87.3858 83.1071 87.7909 82.6522 87.6496C82.1967 87.5077 82.0619 86.9129 81.7929 85.7225L81.7232 85.4148C81.6464 85.0767 81.6084 84.9077 81.5051 84.7716C81.4026 84.6361 81.2458 84.549 80.9335 84.3748L80.649 84.2161Z" fill="white" fill-opacity="0.5"/>
<path d="M79.8221 19.5363C79.8032 18.2777 79.7937 17.6484 80.1904 17.4193C80.5871 17.1903 81.1273 17.5132 82.2079 18.1589L82.4876 18.3259C82.7946 18.5094 82.9482 18.6011 83.117 18.6226C83.2864 18.6438 83.452 18.5924 83.783 18.4897L84.0843 18.3961C85.2498 18.0342 85.8323 17.8534 86.1829 18.1767C86.5329 18.5003 86.4192 19.1138 86.1907 20.3412L86.1319 20.6587C86.0666 21.0076 86.0341 21.1821 86.0727 21.3524C86.1114 21.5226 86.2164 21.6697 86.4265 21.9638L86.6176 22.2316C87.3567 23.2667 87.7263 23.7841 87.5463 24.213C87.3657 24.6422 86.7546 24.6987 85.5332 24.8115L85.2171 24.8407C84.8704 24.8724 84.6965 24.8887 84.5512 24.9725C84.406 25.0564 84.305 25.1989 84.1041 25.4832L83.9207 25.7424C83.2123 26.7438 82.8579 27.2447 82.3959 27.1866C81.9345 27.128 81.6711 26.5492 81.1443 25.3916L81.008 25.0922C80.8583 24.7632 80.7834 24.5988 80.6553 24.4801C80.5272 24.3615 80.3598 24.3025 80.025 24.1845L79.7207 24.0767C78.5434 23.6609 77.9553 23.4526 77.85 22.9877C77.7453 22.5224 78.1931 22.1084 79.0893 21.28L79.321 21.0658C79.5755 20.8305 79.7028 20.7128 79.7692 20.5556C79.8349 20.3985 79.8323 20.2197 79.8269 19.862L79.8221 19.5363Z" fill="white" fill-opacity="0.5"/>
</svg>
