<svg width="14" height="16" viewBox="0 0 14 16" fill="none" xmlns="http://www.w3.org/2000/svg">
<rect width="14" height="16" fill="#1E1E1E"/>
<g id="XXX.BET - mobile 320_bonus-cabinet-full" clip-path="url(#clip0_594_25359)">
<rect width="320" height="1496" transform="translate(-11 -76)" fill="#EBF0F6"/>
<g id="body">
<rect width="320" height="1447" transform="translate(-11 -76)" fill="white"/>
<g id="Frame 1000001240">
<g id="title">
<g id="Frame 1000001184">
<g id="menu/icon/bonus">
<path id="Union" fill-rule="evenodd" clip-rule="evenodd" d="M5.40481 0.137782C6.07821 0.398489 6.59267 0.935239 6.83024 1.64239C6.96752 2.05129 6.95952 2.50079 6.95176 2.93676C6.94998 3.03673 6.94821 3.13599 6.94821 3.23389V4.29376C6.94821 4.57151 6.72211 4.80665 6.45668 4.80665H4.81334C4.61509 4.80665 4.42503 4.79813 4.22842 4.76576C4.01215 4.72997 3.80734 4.65159 3.60909 4.55276C2.83248 4.16767 2.34259 3.30375 2.33112 2.41939V2.41599V2.40065V2.38191C2.34095 1.5606 2.75711 0.797218 3.42559 0.359298C4.00068 -0.0172789 4.76582 -0.109293 5.40481 0.137782ZM5.96515 3.78257V3.09417C5.96515 3.01316 5.96667 2.93137 5.9682 2.84926C5.97216 2.63602 5.97616 2.42066 5.95368 2.21151C5.93402 2.09394 5.90289 1.97977 5.86357 1.86731C5.82425 1.78041 5.78001 1.69521 5.72758 1.61512C5.71447 1.59467 5.70137 1.57593 5.68826 1.55719C5.76363 1.65261 5.62928 1.47199 5.67679 1.54185L5.68662 1.55719C5.65221 1.51459 5.61617 1.47369 5.57848 1.4345C5.5408 1.39361 5.50148 1.35612 5.46052 1.32034L5.45888 1.31863C5.4597 1.31948 5.46093 1.32034 5.46216 1.32119C5.46338 1.32204 5.46461 1.32289 5.46543 1.32374C5.46379 1.32289 5.46257 1.32161 5.46134 1.32034C5.46011 1.31906 5.45888 1.31778 5.45724 1.31693C5.45642 1.31693 5.45601 1.3165 5.4556 1.31608C5.45519 1.31565 5.45478 1.31522 5.45396 1.31522L5.45233 1.31352C5.44844 1.30947 5.44455 1.3065 5.43985 1.3029C5.43861 1.30195 5.43731 1.30095 5.43594 1.29989C5.43512 1.29904 5.43389 1.29818 5.43266 1.29733C5.43144 1.29648 5.43021 1.29563 5.42939 1.29478C5.42857 1.29392 5.42775 1.2935 5.42693 1.29307C5.42611 1.29265 5.42529 1.29222 5.42447 1.29137C5.42447 1.28966 5.42283 1.28796 5.4212 1.28796C5.41874 1.28626 5.41669 1.28455 5.41464 1.28285C5.41259 1.28114 5.41055 1.27944 5.40809 1.27774C5.3278 1.22151 5.24424 1.17209 5.15577 1.12949C5.04599 1.08519 4.93294 1.05281 4.81661 1.03237C4.82822 1.03397 4.83946 1.0352 4.85051 1.03641C4.86285 1.03776 4.87496 1.03909 4.88707 1.04088C4.88199 1.0401 4.87694 1.03932 4.8719 1.03854C4.83303 1.03253 4.79516 1.02667 4.75599 1.02214C4.77729 1.02555 4.79695 1.02896 4.81661 1.03237C4.69701 1.02044 4.5774 1.02044 4.4578 1.03237C4.34475 1.05281 4.23169 1.08519 4.12356 1.12779C4.04 1.16698 3.95972 1.21299 3.88435 1.26581C3.87452 1.27262 3.86469 1.27987 3.85486 1.28711C3.84503 1.29435 3.83519 1.30159 3.82536 1.30841C3.78113 1.3459 3.74017 1.38509 3.70084 1.42598C3.66152 1.46688 3.62384 1.51118 3.58779 1.55548C3.58124 1.56571 3.57428 1.57593 3.56731 1.58615C3.56035 1.59638 3.55339 1.6066 3.54683 1.61683C3.49604 1.69691 3.4518 1.78041 3.41248 1.86731C3.41576 1.85794 3.41944 1.84857 3.42313 1.83919C3.42682 1.82982 3.4305 1.82045 3.43378 1.81108L3.39794 1.90055C3.40264 1.88947 3.40756 1.8784 3.41247 1.86733L3.41248 1.86731C3.37316 1.97977 3.34203 2.09564 3.32237 2.21321C3.31581 2.27626 3.31254 2.3376 3.31254 2.40065C3.31417 2.4637 3.31745 2.52674 3.32237 2.58979C3.34367 2.70907 3.3748 2.82664 3.41576 2.94081C3.45672 3.03112 3.50423 3.11973 3.5583 3.20322C3.56076 3.20663 3.56281 3.20961 3.56485 3.21259C3.5669 3.21557 3.56895 3.21855 3.57141 3.22196C3.57223 3.22282 3.57264 3.22367 3.57305 3.22452C3.57346 3.22537 3.57387 3.22622 3.57468 3.22708C3.57714 3.23048 3.58001 3.23474 3.58287 3.239C3.58574 3.24326 3.58861 3.24752 3.59107 3.25093C3.59189 3.25178 3.5923 3.25264 3.59271 3.25349C3.59312 3.25434 3.59353 3.25519 3.59435 3.25604C3.59578 3.25803 3.59707 3.26001 3.5983 3.262C3.63251 3.30429 3.66832 3.34491 3.70576 3.38384C3.74508 3.42303 3.7844 3.46052 3.82536 3.4963L3.81062 3.48608C3.74344 3.43837 3.91712 3.57639 3.82536 3.49801C3.84339 3.50993 3.86141 3.52356 3.87943 3.5372L3.87943 3.5372C3.95644 3.59002 4.03672 3.63603 4.12028 3.67692L4.12027 3.67692C4.11126 3.67351 4.10225 3.67011 4.09325 3.66649L4.16254 3.69651C4.15407 3.6926 4.14569 3.6885 4.13716 3.68433C4.13215 3.68188 4.12708 3.6794 4.12192 3.67692C4.22842 3.71952 4.33983 3.7519 4.45288 3.77234C4.59561 3.7856 4.73833 3.78442 4.88106 3.78324C4.92184 3.78291 4.96262 3.78257 5.0034 3.78257H5.96515ZM3.6009 3.26627L3.60745 3.27649C3.605 3.27308 3.60295 3.26968 3.6009 3.26627ZM11.6522 2.67158C11.644 2.06497 11.3868 1.45154 10.9264 1.06645C10.6839 0.863675 10.4103 0.703502 10.1039 0.630232C9.78604 0.553553 9.46 0.555257 9.14214 0.631936C8.5818 0.769957 8.06733 1.19084 7.81993 1.7344C7.68394 2.0343 7.60693 2.34783 7.60365 2.68181C7.60256 2.79886 7.60293 2.91668 7.60329 3.03424V3.03428V3.03447C7.60347 3.0931 7.60365 3.15166 7.60365 3.21004V4.29206C7.60365 4.5681 7.82812 4.80495 8.09518 4.80495H9.40101C9.7287 4.80495 10.0547 4.78962 10.3611 4.65671C10.738 4.49313 11.0411 4.24605 11.2836 3.90185C11.5244 3.56106 11.6457 3.12825 11.6539 2.70737L11.6522 2.67158ZM10.6675 2.66647V2.67158V2.67499V2.68862V2.69203V2.70055V2.70396V2.72441V2.73122V2.73804V2.74486V2.74656V2.74997V2.75338V2.75508V2.75678V2.75849V2.76019V2.76871V2.77041V2.77553V2.78405V2.78745V2.78916V2.79086V2.79597C10.6675 2.79597 10.6626 2.83176 10.661 2.83517C10.6446 2.92548 10.62 3.01579 10.5889 3.10098V3.10269C10.5577 3.17085 10.5233 3.2373 10.4824 3.30035C10.4807 3.30376 10.4758 3.31228 10.4693 3.3225C10.4676 3.32591 10.4594 3.33784 10.4578 3.33954C10.4283 3.37703 10.3972 3.41281 10.3644 3.44689C10.3366 3.47586 10.3071 3.50482 10.2759 3.53209C10.2743 3.53379 10.2645 3.54231 10.2645 3.54231L10.2628 3.54402C10.2448 3.55935 10.2169 3.5781 10.2186 3.57469C10.158 3.61558 10.0957 3.65307 10.0302 3.68545C9.94333 3.71782 9.85486 3.74508 9.76474 3.76212C9.64884 3.77284 9.53192 3.77197 9.41559 3.77111H9.41556C9.38389 3.77088 9.35227 3.77064 9.32073 3.77064H8.58671V2.96808C8.58671 2.93396 8.58645 2.89976 8.58619 2.86551V2.86536V2.86534C8.58532 2.7508 8.58444 2.63571 8.59327 2.52164C8.60965 2.42621 8.63423 2.3342 8.667 2.24218C8.69812 2.17403 8.73253 2.10757 8.77349 2.04452C8.77451 2.04242 8.7774 2.03771 8.78139 2.0312L8.78988 2.01726C8.78988 2.01636 8.79172 2.01401 8.7937 2.0115L8.7937 2.0115C8.79545 2.00928 8.7973 2.00693 8.79807 2.00533C8.82756 1.96785 8.85869 1.93377 8.89146 1.89969C8.91931 1.87072 8.9488 1.84175 8.97993 1.81449C8.97993 1.81449 8.9914 1.80427 8.99304 1.80256C9.01106 1.78723 9.03892 1.76848 9.03564 1.77189C9.09463 1.73099 9.15689 1.69521 9.22078 1.66454C9.30762 1.63216 9.3961 1.60661 9.48621 1.58957C9.5796 1.58105 9.67463 1.58105 9.76802 1.58957C9.85813 1.60661 9.94825 1.63216 10.0351 1.66624C10.1023 1.69862 10.1662 1.73781 10.2284 1.78041C10.2299 1.78119 10.2328 1.78304 10.2366 1.78547C10.241 1.78835 10.2468 1.79205 10.253 1.79575C10.2563 1.79915 10.2595 1.80256 10.2645 1.80597C10.3005 1.83664 10.3333 1.86902 10.366 1.9031L10.3661 1.90312L10.3661 1.90313C10.3956 1.9355 10.425 1.96786 10.4529 2.00193C10.457 2.00789 10.4611 2.01428 10.4652 2.02067C10.4693 2.02706 10.4734 2.03345 10.4775 2.03941C10.5201 2.10587 10.5577 2.17573 10.5889 2.2473C10.6184 2.33079 10.6413 2.41599 10.6577 2.50289C10.6593 2.51141 10.661 2.53356 10.661 2.53697C10.6659 2.58809 10.6675 2.62728 10.6675 2.66647ZM13.9658 7.02295V6.47484V6.46124C13.9502 6.05049 13.5755 5.74448 13.1075 5.7404H12.9458H7.87394C7.87549 5.8356 7.87549 5.92129 7.87394 6.01241C7.87394 6.05792 7.87355 6.10309 7.87316 6.14826L7.87316 6.14842C7.87277 6.19364 7.87238 6.23887 7.87238 6.28443C7.87083 6.40003 7.87083 6.51564 7.87083 6.63125V8.35311H13.1075C13.5848 8.35311 13.958 8.01309 13.9658 7.59826C13.9678 7.47042 13.9672 7.34257 13.9665 7.21472C13.9661 7.1508 13.9658 7.08687 13.9658 7.02295ZM13.0942 14.4869V9.69535H7.87087V16H12.1051H12.2099C12.6909 15.9915 13.0831 15.5706 13.0942 15.0543C13.0973 14.9282 13.0963 14.8021 13.0952 14.6761L13.0952 14.6754C13.0947 14.6125 13.0942 14.5497 13.0942 14.4869ZM6.1291 5.7419V8.35376H0.962631C0.791556 8.35376 0.625146 8.32927 0.472734 8.25445C0.208345 8.12522 0.046601 7.879 0.0341592 7.61781C0.032083 7.57605 0.0327761 7.53367 0.0334704 7.4915C0.0338152 7.47049 0.0341592 7.44953 0.0341592 7.42873V6.64653C0.0341592 6.62572 0.0338152 6.60476 0.0334704 6.58375C0.0327761 6.54158 0.032083 6.49921 0.0341592 6.45744C0.046601 6.20034 0.208345 5.95684 0.472734 5.83576C0.687521 5.73822 0.910841 5.73982 1.14054 5.74147H1.14054H1.14062H1.14069H1.14077C1.17045 5.74169 1.20024 5.7419 1.23013 5.7419H6.1291ZM0.904745 9.69527V14.9043C0.904745 14.9218 0.904485 14.9394 0.904226 14.9569C0.903578 15.0007 0.90293 15.0445 0.906333 15.0883C0.941268 15.5927 1.33191 15.9897 1.80512 15.9982C1.88961 15.9994 1.9741 15.999 2.05906 15.9986H2.05909H2.05912H2.05931H2.05959H2.05988H2.06016C2.10258 15.9984 2.14511 15.9982 2.18782 15.9982H6.12595C6.12595 15.879 6.12595 15.7699 6.12754 15.6575C6.12754 15.6002 6.12794 15.5429 6.12834 15.4858C6.12873 15.4291 6.12913 15.3727 6.12913 15.3167V15.1429V9.69527H0.904745Z" fill="#54B7F9"/>
</g>
</g>
</g>
</g>
</g>
</g>
<defs>
<clipPath id="clip0_594_25359">
<rect width="320" height="1496" fill="white" transform="translate(-11 -76)"/>
</clipPath>
</defs>
</svg>
