<svg width="40" height="40" viewBox="0 0 26 25" fill="none" xmlns="http://www.w3.org/2000/svg">
<g clip-path="url(#clip0_73_570)">
<path d="M18.9108 14.0622L25.0545 14.0622C25.1287 14.0622 25.2014 14.041 25.2641 14.0011C25.3267 13.9613 25.3767 13.9044 25.4081 13.8372C25.4396 13.77 25.4513 13.6952 25.4418 13.6216C25.4323 13.548 25.402 13.4786 25.3545 13.4216L22.2826 9.73406C22.246 9.6901 22.2001 9.65473 22.1483 9.63046C22.0964 9.60619 22.0399 9.59361 21.9826 9.59361C21.9254 9.59361 21.8689 9.60619 21.817 9.63046C21.7652 9.65473 21.7193 9.6901 21.6826 9.73406L18.6108 13.4216C18.5633 13.4786 18.533 13.548 18.5235 13.6216C18.514 13.6952 18.5257 13.77 18.5572 13.8372C18.5886 13.9044 18.6386 13.9613 18.7012 14.0011C18.7639 14.041 18.8366 14.0622 18.9108 14.0622ZM1.72327 10.9372H7.86702C7.94125 10.9372 8.01393 10.9584 8.07655 10.9982C8.13918 11.0381 8.18916 11.0949 8.22063 11.1622C8.25211 11.2294 8.26379 11.3042 8.25429 11.3778C8.2448 11.4514 8.21453 11.5208 8.16702 11.5778L5.09515 15.2653C5.05849 15.3093 5.01261 15.3446 4.96077 15.3689C4.90893 15.3932 4.85239 15.4058 4.79515 15.4058C4.73791 15.4058 4.68136 15.3932 4.62952 15.3689C4.57768 15.3446 4.53181 15.3093 4.49515 15.2653L1.42327 11.5778C1.37577 11.5208 1.3455 11.4514 1.336 11.3778C1.32651 11.3042 1.33818 11.2294 1.36966 11.1622C1.40114 11.0949 1.45112 11.0381 1.51374 10.9982C1.57637 10.9584 1.64905 10.9372 1.72327 10.9372Z" fill="white"/>
<path fill-rule="evenodd" clip-rule="evenodd" d="M13.3889 20.3125C10.9639 20.3125 8.79512 19.2078 7.36231 17.4719C7.29833 17.389 7.21832 17.3198 7.12706 17.2684C7.03579 17.217 6.93512 17.1845 6.83104 17.1728C6.72696 17.1611 6.62158 17.1704 6.52118 17.2003C6.42078 17.2301 6.32741 17.2798 6.24661 17.3465C6.16582 17.4131 6.09925 17.4953 6.05086 17.5882C6.00248 17.6811 5.97326 17.7828 5.96496 17.8872C5.95666 17.9916 5.96944 18.0966 6.00253 18.196C6.03563 18.2954 6.08837 18.3871 6.15762 18.4657C7.30166 19.8508 8.81948 20.8781 10.5305 21.4256C12.2416 21.973 14.0739 22.0175 15.8095 21.5536C17.545 21.0898 19.1109 20.1373 20.3208 18.8093C21.5306 17.4813 22.3336 15.8337 22.6342 14.0625H21.0451C20.6844 15.8269 19.7254 17.4125 18.3303 18.5514C16.9353 19.6902 15.1897 20.3123 13.3889 20.3125ZM5.73262 10.9375C6.02841 9.49281 6.72692 8.16125 7.74743 7.09669C8.76793 6.03213 10.0688 5.27801 11.4997 4.92146C12.9307 4.56491 14.4333 4.62047 15.834 5.08174C17.2347 5.543 18.4763 6.39113 19.4154 7.52816C19.4794 7.61108 19.5594 7.6803 19.6507 7.73169C19.7419 7.78308 19.8426 7.81559 19.9467 7.82729C20.0508 7.83899 20.1562 7.82965 20.2566 7.79981C20.357 7.76997 20.4503 7.72024 20.5311 7.65359C20.6119 7.58695 20.6785 7.50473 20.7269 7.41184C20.7753 7.31894 20.8045 7.21727 20.8128 7.11286C20.8211 7.00845 20.8083 6.90344 20.7752 6.80406C20.7421 6.70469 20.6894 6.61299 20.6201 6.53441C19.4761 5.14929 17.9583 4.12192 16.2472 3.57449C14.5362 3.02706 12.7039 2.98261 10.9683 3.44642C9.23269 3.91023 7.66684 4.86279 6.45698 6.19079C5.24711 7.5188 4.44413 9.16636 4.14355 10.9375H5.73262Z" fill="white"/>
</g>
<defs>
<clipPath id="clip0_73_570">
<rect width="25" height="25" fill="white" transform="matrix(-1 0 0 1 25.8889 0)"/>
</clipPath>
</defs>
</svg>
